<?xml version="1.0" encoding="utf-8"?>
<!-- Svg Vector Icons : http://www.onlinewebfonts.com/icon -->
<!DOCTYPE svg PUBLIC "-//W3C//DTD SVG 1.1//EN" "http://www.w3.org/Graphics/SVG/1.1/DTD/svg11.dtd">
<svg version="1.1" xmlns="http://www.w3.org/2000/svg" xmlns:xlink="http://www.w3.org/1999/xlink" x="0px" y="0px" viewBox="0 0 1000 1000" enable-background="new 0 0 1000 1000" xml:space="preserve">
<metadata> Svg Vector Icons : http://www.onlinewebfonts.com/icon </metadata>
<g><path d="M519.6,29.6c-216.3,0-399.6,148-453.9,347.7H10l71.6,81.8l71.6-81.8h-44.4C161.9,200.5,326,70.5,519.6,70.5c236.2,0,429.5,193.3,429.5,429.5c0,236.2-193.3,429.5-429.5,429.5c-222.5,0-406.7-171.4-427.4-388.6H51.1C72,780.6,274.6,970.4,519.6,970.4C778.3,970.4,990,758.7,990,500C990,241.3,778.3,29.6,519.6,29.6z"/><path d="M450.6,635.4c-16.9-3.9-29.6-8-38.2-12.2l-15.7,36.3c10.1,4.6,24.3,8.8,42.6,12.5c16.1,3.3,36.1,5.1,59.7,5.5V725h40.9v-49.3c8.8-1.1,17.2-2.7,25-4.9c16.5-4.6,30.5-11.1,42.1-19.6c11.6-8.5,20.3-18.7,26.4-30.4c5.9-11.8,9-25.1,9-39.8c0-18-4.7-33-14-45.1c-9.3-12.1-21-22.5-35.1-31.1c-14-8.7-29.3-16.3-45.7-22.8c-2.6-1-5-2.1-7.6-3.1V359.2c15.6,0.6,30.2,1.9,43.2,4.5c16.6,3.4,29.3,6.9,37.9,10.6l14-36.3c-10.5-4.6-25.1-8.3-43.7-11.3c-15.6-2.5-33-3.7-51.4-4.1V275h-40.9v49.2c-25,3.1-45.4,10.2-60.9,21.7c-21.3,15.7-31.9,37-31.9,63.8c0,19,4.7,34.6,14,46.9c9.4,12.3,21,22.6,35.1,31c13.4,8,28.1,14.8,43.8,20.5V641C481.5,640.5,465.2,638.8,450.6,635.4z M540.1,524.7c2.2,1,4.6,2,6.8,3c14,6.7,25.7,14.4,35.1,23.1c9.4,8.7,14,19.9,14,33.6c0,9.8-2.3,18.3-7,25.5c-4.7,7.2-10.9,13.2-18.8,17.9s-17.2,8.2-28,10.3c-0.6,0.1-1.4,0.2-2,0.3V524.7z M466.9,439.1c-9.3-8.5-14-19.1-14-31.9c0-13.1,6.2-24.5,18.5-34.1c7.2-5.6,16.6-9.3,27.8-11.7v99C486.5,454.1,475.6,447,466.9,439.1z"/></g>
</svg>